<?xml version="1.0" encoding="UTF-8" standalone="no"?>
<svg width="50px" height="47px" viewBox="0 0 50 47" version="1.1" xmlns="http://www.w3.org/2000/svg" xmlns:xlink="http://www.w3.org/1999/xlink" xmlns:sketch="http://www.bohemiancoding.com/sketch/ns">
    <!-- Generator: Sketch 3.3.2 (12043) - http://www.bohemiancoding.com/sketch -->
    <title>Shape</title>
    <desc>Created with Sketch.</desc>
    <defs>
        <linearGradient x1="50%" y1="0%" x2="50%" y2="100%" id="linearGradient-1">
            <stop stop-color="#DD2476" offset="0%"></stop>
            <stop stop-color="#FF512F" offset="100%"></stop>
        </linearGradient>
    </defs>
    <g id="Page-1" stroke="none" stroke-width="1" fill="none" fill-rule="evenodd" sketch:type="MSPage">
        <g id="Home-Page" sketch:type="MSArtboardGroup" transform="translate(-290.000000, -940.000000)" fill="url(#linearGradient-1)">
            <g id="Features" sketch:type="MSLayerGroup" transform="translate(199.000000, 940.000000)">
                <g id="F1" sketch:type="MSShapeGroup">
                    <path d="M116,0 C102.213589,0 91,11.262049 91,25.108038 L91,41.2489196 L91,43.0423509 L92.7857143,43.0423509 L106.066964,43.0423509 C108.777064,45.2617078 112.219561,46.6292135 116,46.6292135 C119.802248,46.6292135 123.288105,45.2717151 126.044643,43.0423509 L139.214286,43.0423509 L141,43.0423509 L141,41.2489196 L141,25.108038 C141,11.262049 129.786411,0 116,0 L116,0 Z M116,3.58686258 C127.856446,3.58686258 137.428571,13.2003537 137.428571,25.108038 L137.428571,39.4554883 L129.392857,39.4554883 C130.177493,38.278619 130.77715,36.9547026 131.234375,35.5884021 C131.756166,34.5940718 132.071429,33.4766242 132.071429,32.2817632 C134.044643,32.2817632 135.642857,30.6766422 135.642857,28.6949006 L135.642857,26.9014693 C135.642857,24.9197277 134.044643,23.3146067 132.071429,23.3146067 L132.071429,21.5211755 C132.071429,19.1650766 131.193357,17.3267773 129.783482,16.47715 C128.373607,15.6275226 127.056154,15.6995971 126.044643,15.5804343 C125.033132,15.4612716 124.437889,15.2873374 124.035714,14.8518529 C123.633539,14.4163683 123.142857,13.3528743 123.142857,10.7605877 L119.571429,10.7605877 C119.571429,13.5177659 118.794654,14.4160688 117.450893,15.1320765 C116.107132,15.8480842 113.918802,16.1051977 111.535714,16.1408816 C109.152627,16.1765709 106.666579,16.0167941 104.448661,16.47715 C103.339702,16.7073243 102.213079,17.1303678 101.323661,17.9903576 C100.434243,18.8503474 99.9285714,20.1470412 99.9285714,21.5211755 L99.9285714,22.2497569 C97.9472723,23.0424948 96.3571429,24.6441312 96.3571429,26.9014693 C96.3571429,29.248271 98.0468245,30.9381173 100.151786,31.6652712 C100.369266,34.5303996 101.338161,37.1905604 102.830357,39.4554883 L94.5714286,39.4554883 L94.5714286,25.108038 C94.5714286,13.2003537 104.143554,3.58686258 116,3.58686258 L116,3.58686258 Z M121.022321,16.8134183 C121.153838,16.9957278 121.319454,17.1561574 121.46875,17.3178209 C122.740682,18.6951026 124.377582,18.967453 125.598214,19.1112522 C126.818846,19.2550495 127.733536,19.4003766 127.997768,19.55961 C128.262,19.7188434 128.5,19.8268097 128.5,21.5211755 L128.5,23.3146067 L128.5,30.4883319 C128.5,31.7922067 128.306154,33.0626447 127.941964,34.2433287 C127.310657,35.2316743 126.201839,35.8686258 124.928571,35.8686258 L119.404018,35.8686258 C119.040018,34.8169361 118.063996,34.0751945 116.892857,34.0751945 C115.413523,34.0751945 114.214286,35.2796145 114.214286,36.7653414 C114.214286,38.2510683 115.413523,39.4554883 116.892857,39.4554883 L124.816964,39.4554883 C122.562014,41.6915761 119.433316,43.0423509 116,43.0423509 C109.075921,43.0423509 103.5,37.442333 103.5,30.4883319 L103.5,28.6949006 L101.714286,28.6949006 C100.705303,28.6949006 99.9285714,27.9148118 99.9285714,26.9014693 C99.9285714,25.8881268 100.705303,25.108038 101.714286,25.108038 L103.5,25.108038 L103.5,23.3146067 L103.5,21.5211755 C103.5,20.8776995 103.594218,20.7471018 103.779018,20.5684151 C103.963819,20.3897355 104.385744,20.1600185 105.118304,20.0079678 C106.583421,19.7038682 109.008088,19.7655909 111.535714,19.7277442 C114.063341,19.6899028 116.785725,19.5730787 119.125,18.326626 C119.833663,17.9490244 120.463227,17.4375127 121.022321,16.8134183 L121.022321,16.8134183 Z M110.642857,25.108038 C109.656634,25.108038 108.857143,25.9109841 108.857143,26.9014693 C108.857143,27.8919545 109.656634,28.6949006 110.642857,28.6949006 C111.62908,28.6949006 112.428571,27.8919545 112.428571,26.9014693 C112.428571,25.9109841 111.62908,25.108038 110.642857,25.108038 L110.642857,25.108038 Z M121.357143,25.108038 C120.37092,25.108038 119.571429,25.9109841 119.571429,26.9014693 C119.571429,27.8919545 120.37092,28.6949006 121.357143,28.6949006 C122.343366,28.6949006 123.142857,27.8919545 123.142857,26.9014693 C123.142857,25.9109841 122.343366,25.108038 121.357143,25.108038 L121.357143,25.108038 Z" id="Shape"></path>
                </g>
            </g>
        </g>
    </g>
</svg>