<?xml version="1.0" encoding="UTF-8" standalone="no"?>
<svg width="50px" height="37px" viewBox="0 0 50 37" version="1.1" xmlns="http://www.w3.org/2000/svg" xmlns:xlink="http://www.w3.org/1999/xlink" xmlns:sketch="http://www.bohemiancoding.com/sketch/ns">
    <!-- Generator: Sketch 3.3.2 (12043) - http://www.bohemiancoding.com/sketch -->
    <title>Shape</title>
    <desc>Created with Sketch.</desc>
    <defs>
        <linearGradient x1="50%" y1="0%" x2="50%" y2="100%" id="linearGradient-1">
            <stop stop-color="#DD2476" offset="0%"></stop>
            <stop stop-color="#FF512F" offset="100%"></stop>
        </linearGradient>
    </defs>
    <g id="Page-1" stroke="none" stroke-width="1" fill="none" fill-rule="evenodd" sketch:type="MSPage">
        <g id="Home-Page" sketch:type="MSArtboardGroup" transform="translate(-580.000000, -940.000000)" fill="url(#linearGradient-1)">
            <g id="Features" sketch:type="MSLayerGroup" transform="translate(199.000000, 940.000000)">
                <g id="F2" transform="translate(295.000000, 0.000000)" sketch:type="MSShapeGroup">
                    <path d="M104.333333,0 C94.2278538,0 86,8.22785467 86,18.3333333 C86,28.4388117 94.2278538,36.6666667 104.333333,36.6666667 C105.4702,36.6666667 106.58637,36.5533933 107.666667,36.3541667 C108.749115,36.5541817 109.855855,36.6666667 111,36.6666667 C112.136888,36.6666667 113.253023,36.5533883 114.333333,36.3541667 C115.415782,36.5541817 116.522522,36.6666667 117.666667,36.6666667 C127.772345,36.6666667 136,28.4390117 136,18.3333333 C136,8.22765533 127.772345,0 117.666667,0 C116.522522,0 115.415782,0.112484667 114.333333,0.3125 C113.253023,0.113278333 112.136888,0 111,0 C109.855855,0 108.749115,0.112484667 107.666667,0.3125 C106.58637,0.113274 105.4702,0 104.333333,0 L104.333333,0 Z M104.333333,3.33333333 C112.637345,3.33333333 119.333333,10.0293217 119.333333,18.3333333 C119.333333,26.637345 112.637345,33.3333333 104.333333,33.3333333 C96.0293212,33.3333333 89.3333333,26.637345 89.3333333,18.3333333 C89.3333333,10.0293217 96.0293212,3.33333333 104.333333,3.33333333 L104.333333,3.33333333 Z M116,4.21875 C121.830103,6.27358533 126,11.7867233 126,18.3333333 C126,24.8799433 121.830103,30.3930817 116,32.4479167 C120.076485,29.0819733 122.666667,24.017665 122.666667,18.3333333 C122.666667,12.6490017 120.076485,7.58469317 116,4.21875 L116,4.21875 Z M122.666667,4.21875 C128.49677,6.27358533 132.666667,11.7867233 132.666667,18.3333333 C132.666667,24.8799433 128.49677,30.3930817 122.666667,32.4479167 C126.743132,29.0820067 129.333333,24.0177767 129.333333,18.3333333 C129.333333,12.64889 126.743132,7.5846595 122.666667,4.21875 L122.666667,4.21875 Z M102.666667,8.33333333 L102.666667,10.3125 C100.74044,11.009545 99.3333333,12.8466883 99.3333333,15 C99.3333333,17.7416167 101.591717,20 104.333333,20 C105.27505,20 106,20.72495 106,21.6666667 C106,22.6083833 105.27505,23.3333333 104.333333,23.3333333 C103.391617,23.3333333 102.666667,22.6083833 102.666667,21.6666667 L99.3333333,21.6666667 C99.3333333,23.8199783 100.74044,25.6571217 102.666667,26.3541667 L102.666667,28.3333333 L106,28.3333333 L106,26.3541667 C107.926227,25.6571217 109.333333,23.8199783 109.333333,21.6666667 C109.333333,18.92505 107.07495,16.6666667 104.333333,16.6666667 C103.391617,16.6666667 102.666667,15.9417167 102.666667,15 C102.666667,14.0582833 103.391617,13.3333333 104.333333,13.3333333 C105.27505,13.3333333 106,14.0582833 106,15 L109.333333,15 C109.333333,12.8466883 107.926227,11.009545 106,10.3125 L106,8.33333333 L102.666667,8.33333333 L102.666667,8.33333333 Z" id="Shape"></path>
                </g>
            </g>
        </g>
    </g>
</svg>