<?xml version="1.0" encoding="UTF-8" standalone="no"?>
<svg width="50px" height="50px" viewBox="0 0 50 50" version="1.1" xmlns="http://www.w3.org/2000/svg" xmlns:xlink="http://www.w3.org/1999/xlink" xmlns:sketch="http://www.bohemiancoding.com/sketch/ns">
    <!-- Generator: Sketch 3.3.2 (12043) - http://www.bohemiancoding.com/sketch -->
    <title>Shape</title>
    <desc>Created with Sketch.</desc>
    <defs>
        <linearGradient x1="50%" y1="0%" x2="50%" y2="100%" id="linearGradient-1">
            <stop stop-color="#DD2476" offset="0%"></stop>
            <stop stop-color="#FF512F" offset="100%"></stop>
        </linearGradient>
    </defs>
    <g id="Page-1" stroke="none" stroke-width="1" fill="none" fill-rule="evenodd" sketch:type="MSPage">
        <g id="Home-Page" sketch:type="MSArtboardGroup" transform="translate(-870.000000, -940.000000)" fill="url(#linearGradient-1)">
            <g id="Features" sketch:type="MSLayerGroup" transform="translate(199.000000, 940.000000)">
                <g id="F3" transform="translate(595.000000, 0.000000)" sketch:type="MSShapeGroup">
                    <path d="M76,0 L76,1.92307692 L76,40.3846154 L76,42.3076923 L77.9230769,42.3076923 L94.2692308,42.3076923 C97.3781885,46.9508365 102.702973,50 108.692308,50 C118.228304,50 126,42.2283038 126,32.6923077 C126,23.8156269 119.238235,16.4784404 110.615385,15.5048077 L110.615385,1.92307692 L110.615385,0 L108.692308,0 L77.9230769,0 L76,0 L76,0 Z M79.8461538,3.84615385 L106.769231,3.84615385 L106.769231,15.5048077 C103.431892,15.8816365 100.365587,17.2251865 97.875,19.2307692 L83.6923077,19.2307692 L83.6923077,23.0769231 L94.2692308,23.0769231 C93.4759423,24.2616769 92.8903692,25.5576538 92.40625,26.9230769 L83.6923077,26.9230769 L83.6923077,30.7692308 L91.5048077,30.7692308 C91.4324904,31.4096942 91.3846154,32.0329923 91.3846154,32.6923077 C91.3846154,34.7107192 91.7668577,36.6581769 92.40625,38.4615385 L79.8461538,38.4615385 L79.8461538,3.84615385 L79.8461538,3.84615385 Z M83.6923077,11.5384615 L83.6923077,15.3846154 L102.923077,15.3846154 L102.923077,11.5384615 L83.6923077,11.5384615 L83.6923077,11.5384615 Z M108.692308,19.2307692 C116.149688,19.2307692 122.153846,25.2349269 122.153846,32.6923077 C122.153846,40.1496885 116.149688,46.1538462 108.692308,46.1538462 C101.234927,46.1538462 95.2307692,40.1496885 95.2307692,32.6923077 C95.2307692,25.2349269 101.234927,19.2307692 108.692308,19.2307692 L108.692308,19.2307692 Z M102.322115,23.0769231 C100.206731,24.4230769 98.7163462,26.5384615 97.7548077,28.8461538 L114.461538,28.8461538 L114.461538,23.0769231 L102.322115,23.0769231 L102.322115,23.0769231 Z M97.3341346,34.6153846 C97.71875,36.7307692 98.6923077,38.8461538 100.038462,40.3846154 L114.461538,40.3846154 L114.461538,34.6153846 L97.3341346,34.6153846 L97.3341346,34.6153846 Z" id="Shape"></path>
                </g>
            </g>
        </g>
    </g>
</svg>