<?xml version="1.0" encoding="UTF-8" standalone="no"?>
<svg width="45px" height="45px" viewBox="0 0 45 45" version="1.1" xmlns="http://www.w3.org/2000/svg" xmlns:xlink="http://www.w3.org/1999/xlink" xmlns:sketch="http://www.bohemiancoding.com/sketch/ns">
    <!-- Generator: Sketch 3.3.2 (12043) - http://www.bohemiancoding.com/sketch -->
    <title>Shape</title>
    <desc>Created with Sketch.</desc>
    <defs>
        <linearGradient x1="50%" y1="0%" x2="50%" y2="100%" id="linearGradient-1">
            <stop stop-color="#DD2476" offset="0%"></stop>
            <stop stop-color="#FF512F" offset="100%"></stop>
        </linearGradient>
    </defs>
    <g id="Page-1" stroke="none" stroke-width="1" fill="none" fill-rule="evenodd" sketch:type="MSPage">
        <g id="Home-Page" sketch:type="MSArtboardGroup" transform="translate(-1163.000000, -940.000000)" fill="url(#linearGradient-1)">
            <g id="Features" sketch:type="MSLayerGroup" transform="translate(199.000000, 940.000000)">
                <g id="F4" transform="translate(886.000000, 0.000000)" sketch:type="MSShapeGroup">
                    <path d="M86.1818182,0 L86.1818182,2.04545455 L86.1818182,28.6363636 L90.2727273,28.6363636 L90.2727273,4.09090909 L118.909091,4.09090909 L118.909091,36.8181818 C118.909091,39.1022714 117.102271,40.9090909 114.818182,40.9090909 C112.534092,40.9090909 110.727273,39.1022714 110.727273,36.8181818 L110.727273,32.7272727 L110.727273,30.6818182 L80.0454545,30.6818182 L78,30.6818182 L78,32.7272727 L78,36.8181818 C78,41.3127286 81.6872716,45 86.1818182,45 L114.818182,45 C119.312729,45 123,41.3127286 123,36.8181818 L123,2.04545455 L123,0 L120.954545,0 L88.2272727,0 L86.1818182,0 L86.1818182,0 Z M94.3636364,12.2727273 L94.3636364,16.3636364 L98.4545455,16.3636364 L98.4545455,12.2727273 L94.3636364,12.2727273 L94.3636364,12.2727273 Z M102.545455,12.2727273 L102.545455,16.3636364 L114.818182,16.3636364 L114.818182,12.2727273 L102.545455,12.2727273 L102.545455,12.2727273 Z M94.3636364,20.4545455 L94.3636364,24.5454545 L98.4545455,24.5454545 L98.4545455,20.4545455 L94.3636364,20.4545455 L94.3636364,20.4545455 Z M102.545455,20.4545455 L102.545455,24.5454545 L114.818182,24.5454545 L114.818182,20.4545455 L102.545455,20.4545455 L102.545455,20.4545455 Z M82.0909091,34.7727273 L106.636364,34.7727273 L106.636364,36.8181818 C106.636364,38.3163648 107.074205,39.6969689 107.786932,40.9090909 L86.1818182,40.9090909 C83.8977284,40.9090909 82.0909091,39.1022714 82.0909091,36.8181818 L82.0909091,34.7727273 L82.0909091,34.7727273 Z" id="Shape"></path>
                </g>
            </g>
        </g>
    </g>
</svg>